<svg xmlns="http://www.w3.org/2000/svg" xmlns:xlink="http://www.w3.org/1999/xlink" viewBox="0 0 1000 623">
  <g transform="translate(-0.6060606060605664 0.2522267206477409) scale(1)">
    <svg viewBox="0 0 396 247" xmlns="http://www.w3.org/2000/svg" xmlns:xlink="http://www.w3.org/1999/xlink">
      <g transform="translate(0.2400000000000091 -0.09999999999999432)">
        <svg viewBox="0 0 395.52 247.2">
          <g>
            <svg viewBox="0 0 395.52 247.2">
              <g transform="translate(75.54432 48.02464321931589)">
                <svg viewBox="0 0 244.43135999999998 151.1507135613682">
                  <g>
                    <svg viewBox="0 0 244.43135999999998 151.1507135613682">
                      <g>
                        <svg viewBox="0 0 244.43135999999998 151.1507135613682">
                          <g>
                            <svg viewBox="0 0 244.43135999999998 151.1507135613682">
                              <g id="textblocktransform">
                                <svg viewBox="0 0 244.43135999999998 151.1507135613682" id="textblock">
                                  <g>
                                    <svg viewBox="0 0 244.43135999999998 151.1507135613682">
                                      <g transform="translate(0 0)">
                                        <svg viewBox="-0.04000000283122063 -32.15999984741211 59.63999938964844 36.880001068115234" data-palette-color="#6936f5">
                                          <path d="M14.76 0.56L14.76 0.56Q12.8-1.32 12.8-5.08L12.8-5.08Q12.8-9.28 15.56-13.76L15.56-13.76Q17.08-16.24 19.68-17.84 22.28-19.44 25.36-19.44L25.36-19.44Q26.72-19.44 28.28-18.96L28.28-18.96Q31.32-23.96 33.24-26.2 35.16-28.44 36.56-29.6L36.56-29.6Q39.72-32.16 42.96-32.16L42.96-32.16Q43.6-32.16 43.6-31.52L43.6-31.52Q40.96-25.72 39.54-19.82 38.12-13.92 37.34-8.34 36.56-2.76 36.56 1.12L36.56 1.12Q36.56 1.68 36 1.68L36 1.68Q34.6 1.68 34.6-1.52L34.6-1.52Q34.6-5.56 33.84-8.84L33.84-8.84Q32.44-15.08 28.96-17.08L28.96-17.08Q28.52-16.24 27.3-13.88 26.08-11.52 25.5-10.42 24.92-9.32 23.78-7.34 22.64-5.36 21.84-4.16L21.84-4.16Q19.92-1.28 17.68 0.88L17.68 0.88Q18.08 1 18.64 1L18.64 1Q22 1 24.2-1.22 26.4-3.44 27.24-6.48L27.24-6.48Q27.36-6.92 27.88-6.88L27.88-6.88Q28.2-6.84 28.12-6.56L28.12-6.56Q27.24-3.12 24.78-0.54 22.32 2.04 18.6 2.04L18.6 2.04Q17.76 2.04 16.72 1.76L16.72 1.76Q13.04 4.72 8.88 4.72L8.88 4.72Q3.48 4.72 1.2 0.48L1.2 0.48Q-0.04-1.8-0.04-4.44L-0.04-4.44Q-0.04-5.84 0.32-7.36L0.32-7.36Q1.28-11.48 4.24-13.24L4.24-13.24Q5.72-14.12 7.48-14.12L7.48-14.12Q8.04-14.12 8.4-13.78 8.76-13.44 8.92-12.72L8.92-12.72Q6.56-12.72 4.68-11.04L4.68-11.04Q1.52-8.28 1.52-3.2L1.52-3.2Q1.52-0.12 3.38 1.62 5.24 3.36 8.38 3.36 11.52 3.36 14.76 0.56ZM25.32-18L25.32-18Q21.96-18 19.28-15.8 16.6-13.6 15.36-10.66 14.12-7.72 14.12-4.72 14.12-1.72 15.64-0.16L15.64-0.16Q17.16-1.6 18.88-3.94 20.6-6.28 21.6-7.88 22.6-9.48 24.72-13.08 26.84-16.68 27.48-17.72L27.48-17.72Q26.52-18 25.32-18ZM40.88-30.6L40.88-30.6Q37.68-29.76 35.04-26.64 32.4-23.52 29.64-18.36L29.64-18.36Q33.52-16.24 35.08-9.88L35.08-9.88Q35.8-16.68 37.42-22.38 39.04-28.08 40.88-30.6ZM49.92-3.68L49.92-3.68Q49.92-1.28 51.2-1.28L51.2-1.28Q52.84-1.28 54.8-5.68L54.8-5.68Q57.08-10.72 57.08-15.12L57.08-15.12Q57.08-18.12 55.52-18.12 53.96-18.12 52.02-15.58 50.08-13.04 48.64-9.88 47.2-6.72 46.18-4.18 45.16-1.64 45.16-1.36L45.16-1.36Q45.16-0.76 44.56-0.76L44.56-0.76Q43.36-0.76 43.36-3.96L43.36-3.96Q43.36-10.32 44.64-16.74 45.92-23.16 47.68-27.02 49.44-30.88 50.96-30.88L50.96-30.88Q51.6-30.88 51.6-30.24L51.6-30.24Q49.48-25.56 47.94-19 46.4-12.44 45.64-6.56L45.64-6.56 45.92-6.56Q47.76-11.24 50.12-14.96L50.12-14.96Q51.44-17.04 52.94-18.26 54.44-19.48 55.84-19.48L55.84-19.48Q58.68-19.48 59.36-15.8L59.36-15.8Q59.6-14.72 59.6-13.52L59.6-13.52Q59.6-10.56 58.32-7.08L58.32-7.08Q56.52-2.12 53.6-0.56L53.6-0.56Q52.6 0 51.52 0L51.52 0Q48.8 0 48.8-3.6L48.8-3.6Q48.8-5.52 49.86-8.02 50.92-10.52 52.64-11.72L52.64-11.72Q53-11.92 53.24-11.56L53.24-11.56Q53.28-11.36 53.2-11.28L53.2-11.28Q51.68-10.08 50.8-7.76 49.92-5.44 49.92-3.68Z" opacity="1" transform="matrix(1,0,0,1,0,0)" fill="#6936f5" class="undefined-text-0" data-fill-palette-color="primary" id="text-0"></path></svg>